<?xml version="1.0" encoding="utf-8"?>
<!-- Generator: Adobe Illustrator 17.1.0, SVG Export Plug-In . SVG Version: 6.00 Build 0)  -->
<!DOCTYPE svg PUBLIC "-//W3C//DTD SVG 1.1//EN" "http://www.w3.org/Graphics/SVG/1.1/DTD/svg11.dtd">
<svg version="1.1" id="artwork" xmlns="http://www.w3.org/2000/svg" xmlns:xlink="http://www.w3.org/1999/xlink" x="0px" y="0px"
	 viewBox="0 0 612 792" enable-background="new 0 0 612 792" xml:space="preserve">
<g>
	<path fill="#B9AA73" d="M565.882,176.677l-11.075-51.685c0,0,18.459-11.075,22.151-24.919c3.692-13.844-0.923-29.534-15.69-40.609
		c0,0,16.613-29.534-10.152-45.224c-26.765-15.69-60.914,15.69-70.143,19.382c-9.229,3.692-66.124,50.762-177.502,10.152
		C192.092,3.165,145.023-13.448,76.725,53.927c0,0-23.996-0.923-27.688,13.844c-3.692,14.767,0.923,22.151,0.923,22.151
		l-9.258,28.725c0,0-29.102,15.829-21.466,46.373c7.636,30.544,31.562,33.598,31.562,33.598s-4.582,12.727,11.2,63.633
		c15.781,50.906,147.628,478.01,147.628,478.01s35.634-11.199,68.214-32.58c0,0,12.727,50.397,69.742,69.232
		s97.74-20.363,101.812-25.962c4.073-5.6,26.98-50.397-22.908-67.196c0,0,19.344-45.816,36.653-64.651
		c0,0,18.326,9.672,27.489-8.654c9.163-18.326-2.036-24.435,5.6-44.798c7.636-20.363,45.658-101.018,58.579-154.548
		c12.921-53.53,16.613-130.134,16.613-152.285s16.613-31.38,17.536-52.607S565.882,176.677,565.882,176.677z M303.47,102.842
		c126.74,68.297,243.224-31.395,243.224-31.395l-0.194,25.857c0,0-117.811,91.316-230.688,26.474
		C194.668,54.187,169.019,53.927,169.019,53.927S176.73,34.545,303.47,102.842z M241.244,116.105l14.571,8.87l-42.447,96.931
		l-10.453-18.372L241.244,116.105z M189.927,183.894l-10.137-19.006l31.677-69.056l14.571,10.137L189.927,183.894z M272.287,132.577
		l15.838,7.286l-53.851,120.689l-9.471-19.229L272.287,132.577z M303.561,148.162l16.226,6.161l-65.874,147.665l-9.471-19.229
		L303.561,148.162z M337.587,161.685c0,0,15.214,4.649,18.172,4.649l-78.18,174.11l-13.101-19.862L337.587,161.685z
		 M371.818,169.006c0,0,10.565,2.822,19.44,3.244L297.863,378.9l-9.738-20.707L371.818,169.006z M409.006,173.94
		c0,0,13.523,1.268,20.707,0L319.787,416.934l-11.781-21.778L409.006,173.94z M162.685,76.192
		c21.54-1.901,32.311,8.883,32.311,8.883l-25.976,61.962c0,0-17.738-34.733-20.272-42.336
		C146.213,97.099,141.144,78.093,162.685,76.192z M70.188,72.391c31.044-6.969,57.019,13.41,57.019,13.41l-5.702,13.41
		c-16.472-19.428-53.851-16.05-53.851-16.05L70.188,72.391z M149.638,450.618c-16.653,0-30.153-13.48-30.153-30.109
		c0-16.629,13.5-30.109,30.153-30.109s30.153,13.48,30.153,30.109C179.79,437.138,166.291,450.618,149.638,450.618z M298.619,685.53
		L92.517,173.94c-27.404,34.209-57.663,3.471-60.518,0c-2.854-3.472-14.844-39.918,20.553-49.053
		c35.397-9.135,46.815,30.259,49.67,36.798c2.855,6.539,201.248,499.113,201.248,499.113c18.313-13.972,45.665-44.858,45.665-44.858
		L146.354,196.565l10.742-17.262l204.261,422.489c16.585-20.077,34.916-48.883,34.916-48.883l-40.514-79.41L471.431,209.99
		c11.559,70.96,11.031,138.495-19.61,258.606C421.181,588.706,298.619,685.53,298.619,685.53z M564.536,206.922
		c-4.705,17.877-18.747,34.814-17.842,83.741c0.905,48.927-10.385,107.264-16.972,130.787
		c-6.586,23.523-36.695,113.85-46.105,126.082c-9.409,12.232,3.764,46.105-13.173,51.75s-16.936-2.823-16.936-2.823
		s-52.691,83.741-57.396,102.56c-4.705,18.818-1.882,31.991,9.409,31.991s4.951-15.215,4.951-15.215s4.951-10.351,9.451-9.901
		c4.501,0.45,23.853,11.251,14.402,30.604c-9.451,19.352-38.704,18.452-48.606,15.752c-9.901-2.7-29.254-21.153-33.754-41.855
		c0,0,128.829-128.989,150.47-267.303c21.641-138.314,16.937-183.096,6.587-274.085c0,0-28.227,10.679-44.223,14.888
		L344.363,454.382l-12.838-18.818l118.22-266.558c0,0,50.881-10.145,80.919-29.143c0,0,7.527,43.522,6.586,56.702
		C537.25,196.565,569.241,189.045,564.536,206.922z"/>
	<ellipse fill="#B9AA73" cx="149.202" cy="421.667" rx="16.603" ry="17.051"/>
	<ellipse fill="#B9AA73" cx="59.565" cy="156.851" rx="16.603" ry="17.051"/>
</g>
</svg>
